<?xml version="1.0" standalone="no"?>
<!DOCTYPE svg PUBLIC "-//W3C//DTD SVG 20010904//EN"
 "http://www.w3.org/TR/2001/REC-SVG-20010904/DTD/svg10.dtd">
<svg version="1.0" xmlns="http://www.w3.org/2000/svg"
 width="115.000000pt" height="145.000000pt" viewBox="0 0 115.000000 145.000000"
 preserveAspectRatio="xMidYMid meet">

<g transform="translate(0.000000,145.000000) scale(0.100000,-0.100000)"
fill="#000000" stroke="none">
<path d="M506 1375 c-99 -35 -160 -147 -137 -251 45 -198 315 -234 405 -53 57
115 15 242 -98 295 -57 27 -112 30 -170 9z m134 -100 c40 -21 60 -53 60 -98 0
-76 -50 -127 -125 -127 -51 0 -104 51 -112 106 -13 97 88 165 177 119z"/>
<path d="M245 600 c-80 -159 -145 -292 -145 -295 0 -3 63 -5 140 -5 l140 0 0
-90 0 -90 65 0 66 0 -3 153 -3 152 -102 3 c-57 1 -103 4 -103 6 0 2 44 91 97
198 54 106 99 195 101 198 1 3 -23 18 -53 33 l-55 27 -145 -290z"/>
<path d="M718 864 c-27 -13 -48 -29 -48 -34 0 -6 43 -96 95 -200 52 -104 95
-192 95 -195 0 -3 -45 -5 -100 -5 l-100 0 0 -155 0 -155 60 0 60 0 0 90 0 90
140 0 c86 0 140 4 140 10 0 13 -283 580 -290 580 -3 -1 -26 -12 -52 -26z"/>
</g>
</svg>
