<?xml version="1.0" standalone="no"?>
<!DOCTYPE svg PUBLIC "-//W3C//DTD SVG 20010904//EN"
 "http://www.w3.org/TR/2001/REC-SVG-20010904/DTD/svg10.dtd">
<svg version="1.0" xmlns="http://www.w3.org/2000/svg"
 width="93.000000pt" height="145.000000pt" viewBox="0 0 93.000000 145.000000"
 preserveAspectRatio="xMidYMid meet">

<g transform="translate(0.000000,145.000000) scale(0.100000,-0.100000)"
fill="#000000" stroke="none">
<path d="M359 1363 c-35 -19 -64 -43 -84 -71 -27 -39 -30 -51 -30 -121 0 -68
3 -83 27 -119 52 -78 154 -117 242 -92 168 47 215 261 82 378 -66 58 -153 67
-237 25z m179 -107 c34 -31 37 -39 37 -86 0 -47 -3 -55 -37 -86 -44 -40 -94
-45 -145 -14 -40 24 -55 53 -55 103 1 69 52 117 125 117 29 0 46 -8 75 -34z"/>
<path d="M225 844 c-44 -36 -93 -77 -108 -90 l-28 -23 96 -165 95 -165 0 -140
0 -141 65 0 65 0 0 151 0 152 -80 138 c-44 76 -80 139 -80 142 0 2 29 27 65
56 36 29 65 56 65 59 0 4 -17 26 -38 50 l-37 43 -80 -67z"/>
<path d="M567 866 c-20 -25 -37 -47 -37 -49 0 -2 29 -27 65 -55 36 -29 65 -56
65 -61 0 -4 -34 -66 -75 -137 l-75 -129 0 -157 0 -158 60 0 60 0 0 138 0 138
95 163 c52 90 95 167 95 170 0 6 -206 181 -213 181 -1 0 -19 -20 -40 -44z"/>
</g>
</svg>
